<mxfile host="app.diagrams.net" modified="2023-09-25T18:56:07.819Z" agent="Mozilla/5.0 (Windows NT 10.0; Win64; x64) AppleWebKit/537.36 (KHTML, like Gecko) Chrome/116.0.0.0 Safari/537.36 OPR/102.0.0.0" etag="uEp0Tc5RG3x1n-E1TzkT" version="21.8.2" type="device">
  <diagram name="Page-1" id="JQo1rMQ36x3IcehyepoF">
    <mxGraphModel dx="1990" dy="1109" grid="1" gridSize="10" guides="1" tooltips="1" connect="1" arrows="1" fold="1" page="1" pageScale="1" pageWidth="1400" pageHeight="850" math="0" shadow="0">
      <root>
        <mxCell id="0" />
        <mxCell id="1" parent="0" />
        <mxCell id="APJNa1jF2CcIG3LwoiaT-2" value="Utility" style="text;html=1;strokeColor=none;fillColor=none;align=center;verticalAlign=middle;whiteSpace=wrap;rounded=0;" parent="1" vertex="1">
          <mxGeometry x="585" y="210" width="60" height="30" as="geometry" />
        </mxCell>
        <mxCell id="APJNa1jF2CcIG3LwoiaT-3" value="&lt;b&gt;&lt;font style=&quot;font-size: 14px;&quot;&gt;Quality Attribute&lt;/font&gt;&lt;/b&gt;" style="text;html=1;strokeColor=none;fillColor=none;align=center;verticalAlign=middle;whiteSpace=wrap;rounded=0;" parent="1" vertex="1">
          <mxGeometry y="300" width="130" height="30" as="geometry" />
        </mxCell>
        <mxCell id="APJNa1jF2CcIG3LwoiaT-4" value="Performance&lt;span style=&quot;white-space: pre;&quot;&gt;&#x9;&lt;/span&gt;" style="text;html=1;strokeColor=none;fillColor=none;align=center;verticalAlign=middle;whiteSpace=wrap;rounded=0;" parent="1" vertex="1">
          <mxGeometry x="210" y="300" width="130" height="30" as="geometry" />
        </mxCell>
        <mxCell id="APJNa1jF2CcIG3LwoiaT-7" value="Security" style="text;html=1;strokeColor=none;fillColor=none;align=center;verticalAlign=middle;whiteSpace=wrap;rounded=0;" parent="1" vertex="1">
          <mxGeometry x="550" y="300" width="130" height="30" as="geometry" />
        </mxCell>
        <mxCell id="APJNa1jF2CcIG3LwoiaT-8" value="Interoperability" style="text;html=1;strokeColor=none;fillColor=none;align=center;verticalAlign=middle;whiteSpace=wrap;rounded=0;" parent="1" vertex="1">
          <mxGeometry x="1125" y="300" width="130" height="30" as="geometry" />
        </mxCell>
        <mxCell id="APJNa1jF2CcIG3LwoiaT-9" value="&lt;b&gt;&lt;font style=&quot;font-size: 14px;&quot;&gt;Attribute Refinement&lt;/font&gt;&lt;/b&gt;" style="text;html=1;strokeColor=none;fillColor=none;align=center;verticalAlign=middle;whiteSpace=wrap;rounded=0;" parent="1" vertex="1">
          <mxGeometry y="370" width="130" height="50" as="geometry" />
        </mxCell>
        <mxCell id="APJNa1jF2CcIG3LwoiaT-10" value="&lt;b&gt;&lt;font style=&quot;font-size: 14px;&quot;&gt;Architecturally Specific&lt;br&gt;Requirement&lt;br&gt;&lt;/font&gt;&lt;/b&gt;" style="text;html=1;strokeColor=none;fillColor=none;align=center;verticalAlign=middle;whiteSpace=wrap;rounded=0;" parent="1" vertex="1">
          <mxGeometry y="450" width="130" height="70" as="geometry" />
        </mxCell>
        <mxCell id="APJNa1jF2CcIG3LwoiaT-11" value="Latency" style="text;html=1;strokeColor=none;fillColor=none;align=center;verticalAlign=middle;whiteSpace=wrap;rounded=0;" parent="1" vertex="1">
          <mxGeometry x="210" y="380" width="130" height="30" as="geometry" />
        </mxCell>
        <mxCell id="APJNa1jF2CcIG3LwoiaT-12" value="Authentication" style="text;html=1;strokeColor=none;fillColor=none;align=center;verticalAlign=middle;whiteSpace=wrap;rounded=0;" parent="1" vertex="1">
          <mxGeometry x="440" y="380" width="130" height="30" as="geometry" />
        </mxCell>
        <mxCell id="APJNa1jF2CcIG3LwoiaT-13" value="Authorization" style="text;html=1;strokeColor=none;fillColor=none;align=center;verticalAlign=middle;whiteSpace=wrap;rounded=0;" parent="1" vertex="1">
          <mxGeometry x="660" y="380" width="130" height="30" as="geometry" />
        </mxCell>
        <mxCell id="APJNa1jF2CcIG3LwoiaT-14" value="Shared Storage" style="text;html=1;strokeColor=none;fillColor=none;align=center;verticalAlign=middle;whiteSpace=wrap;rounded=0;" parent="1" vertex="1">
          <mxGeometry x="960" y="380" width="130" height="30" as="geometry" />
        </mxCell>
        <mxCell id="APJNa1jF2CcIG3LwoiaT-15" value="Accessibility" style="text;html=1;strokeColor=none;fillColor=none;align=center;verticalAlign=middle;whiteSpace=wrap;rounded=0;" parent="1" vertex="1">
          <mxGeometry x="1125" y="380" width="130" height="30" as="geometry" />
        </mxCell>
        <mxCell id="APJNa1jF2CcIG3LwoiaT-16" value="It takes around 1 second to complete any given task (H)" style="text;html=1;strokeColor=none;fillColor=none;align=center;verticalAlign=middle;whiteSpace=wrap;rounded=0;" parent="1" vertex="1">
          <mxGeometry x="170" y="450" width="80" height="100" as="geometry" />
        </mxCell>
        <mxCell id="APJNa1jF2CcIG3LwoiaT-30" value="It takes about 5 second to complete any given task under heavy load (M)" style="text;html=1;strokeColor=#d79b00;fillColor=#ffe6cc;align=center;verticalAlign=middle;whiteSpace=wrap;rounded=0;" parent="1" vertex="1">
          <mxGeometry x="285" y="450" width="80" height="110" as="geometry" />
        </mxCell>
        <mxCell id="APJNa1jF2CcIG3LwoiaT-31" value="A user must create or have an account to use the app (H)" style="text;html=1;strokeColor=none;fillColor=none;align=center;verticalAlign=middle;whiteSpace=wrap;rounded=0;" parent="1" vertex="1">
          <mxGeometry x="410" y="450" width="80" height="100" as="geometry" />
        </mxCell>
        <mxCell id="APJNa1jF2CcIG3LwoiaT-32" value="A user must login to the app using a username/email and a password (H)" style="text;html=1;strokeColor=#d79b00;fillColor=#ffe6cc;align=center;verticalAlign=middle;whiteSpace=wrap;rounded=0;" parent="1" vertex="1">
          <mxGeometry x="510" y="450" width="90" height="97.5" as="geometry" />
        </mxCell>
        <mxCell id="APJNa1jF2CcIG3LwoiaT-35" value="" style="endArrow=none;html=1;rounded=0;exitX=0.5;exitY=1;exitDx=0;exitDy=0;entryX=0.5;entryY=0;entryDx=0;entryDy=0;" parent="1" source="APJNa1jF2CcIG3LwoiaT-11" target="APJNa1jF2CcIG3LwoiaT-30" edge="1">
          <mxGeometry width="50" height="50" relative="1" as="geometry">
            <mxPoint x="500" y="440" as="sourcePoint" />
            <mxPoint x="320" y="460" as="targetPoint" />
          </mxGeometry>
        </mxCell>
        <mxCell id="APJNa1jF2CcIG3LwoiaT-37" value="" style="endArrow=none;html=1;rounded=0;exitX=0.5;exitY=0;exitDx=0;exitDy=0;entryX=0.5;entryY=1;entryDx=0;entryDy=0;" parent="1" source="APJNa1jF2CcIG3LwoiaT-16" target="APJNa1jF2CcIG3LwoiaT-11" edge="1">
          <mxGeometry width="50" height="50" relative="1" as="geometry">
            <mxPoint x="500" y="440" as="sourcePoint" />
            <mxPoint x="550" y="390" as="targetPoint" />
          </mxGeometry>
        </mxCell>
        <mxCell id="APJNa1jF2CcIG3LwoiaT-38" value="" style="endArrow=none;html=1;rounded=0;exitX=0.5;exitY=0;exitDx=0;exitDy=0;entryX=0.5;entryY=1;entryDx=0;entryDy=0;" parent="1" source="APJNa1jF2CcIG3LwoiaT-31" target="APJNa1jF2CcIG3LwoiaT-12" edge="1">
          <mxGeometry width="50" height="50" relative="1" as="geometry">
            <mxPoint x="468" y="450" as="sourcePoint" />
            <mxPoint x="533" y="410" as="targetPoint" />
          </mxGeometry>
        </mxCell>
        <mxCell id="APJNa1jF2CcIG3LwoiaT-39" value="" style="endArrow=none;html=1;rounded=0;exitX=0.5;exitY=1;exitDx=0;exitDy=0;entryX=0.5;entryY=0;entryDx=0;entryDy=0;" parent="1" source="APJNa1jF2CcIG3LwoiaT-12" target="APJNa1jF2CcIG3LwoiaT-32" edge="1">
          <mxGeometry width="50" height="50" relative="1" as="geometry">
            <mxPoint x="600" y="417.5" as="sourcePoint" />
            <mxPoint x="650" y="457.5" as="targetPoint" />
          </mxGeometry>
        </mxCell>
        <mxCell id="APJNa1jF2CcIG3LwoiaT-40" value="A user can only edit items they own (H)" style="text;html=1;strokeColor=none;fillColor=none;align=center;verticalAlign=middle;whiteSpace=wrap;rounded=0;" parent="1" vertex="1">
          <mxGeometry x="630" y="450" width="80" height="60" as="geometry" />
        </mxCell>
        <mxCell id="APJNa1jF2CcIG3LwoiaT-41" value="A user cannot place a bid on their own items (M)" style="text;html=1;strokeColor=none;fillColor=none;align=center;verticalAlign=middle;whiteSpace=wrap;rounded=0;" parent="1" vertex="1">
          <mxGeometry x="740" y="450" width="70" height="77.5" as="geometry" />
        </mxCell>
        <mxCell id="APJNa1jF2CcIG3LwoiaT-42" value="&amp;nbsp;User can access their data from a sharing mobile app (H)" style="text;html=1;strokeColor=none;fillColor=none;align=center;verticalAlign=middle;whiteSpace=wrap;rounded=0;" parent="1" vertex="1">
          <mxGeometry x="1105" y="450" width="70" height="97.5" as="geometry" />
        </mxCell>
        <mxCell id="APJNa1jF2CcIG3LwoiaT-43" value="User data must be in shared storage (H)" style="text;html=1;strokeColor=none;fillColor=none;align=center;verticalAlign=middle;whiteSpace=wrap;rounded=0;" parent="1" vertex="1">
          <mxGeometry x="985" y="450" width="80" height="68.75" as="geometry" />
        </mxCell>
        <mxCell id="APJNa1jF2CcIG3LwoiaT-44" value="&amp;nbsp;User can access their data from a sharing web app (M)" style="text;html=1;strokeColor=none;fillColor=none;align=center;verticalAlign=middle;whiteSpace=wrap;rounded=0;" parent="1" vertex="1">
          <mxGeometry x="1205" y="450" width="70" height="97.5" as="geometry" />
        </mxCell>
        <mxCell id="APJNa1jF2CcIG3LwoiaT-45" value="" style="endArrow=none;html=1;rounded=0;exitX=0.5;exitY=0;exitDx=0;exitDy=0;entryX=0.5;entryY=1;entryDx=0;entryDy=0;" parent="1" source="APJNa1jF2CcIG3LwoiaT-40" target="APJNa1jF2CcIG3LwoiaT-13" edge="1">
          <mxGeometry width="50" height="50" relative="1" as="geometry">
            <mxPoint x="655" y="450" as="sourcePoint" />
            <mxPoint x="710" y="410" as="targetPoint" />
          </mxGeometry>
        </mxCell>
        <mxCell id="APJNa1jF2CcIG3LwoiaT-46" value="" style="endArrow=none;html=1;rounded=0;exitX=0.5;exitY=1;exitDx=0;exitDy=0;entryX=0.5;entryY=0;entryDx=0;entryDy=0;" parent="1" source="APJNa1jF2CcIG3LwoiaT-13" target="APJNa1jF2CcIG3LwoiaT-41" edge="1">
          <mxGeometry width="50" height="50" relative="1" as="geometry">
            <mxPoint x="730" y="420" as="sourcePoint" />
            <mxPoint x="780" y="460" as="targetPoint" />
          </mxGeometry>
        </mxCell>
        <mxCell id="APJNa1jF2CcIG3LwoiaT-48" value="" style="endArrow=none;html=1;rounded=0;entryX=0.5;entryY=1;entryDx=0;entryDy=0;exitX=0.5;exitY=0;exitDx=0;exitDy=0;" parent="1" source="APJNa1jF2CcIG3LwoiaT-43" target="APJNa1jF2CcIG3LwoiaT-14" edge="1">
          <mxGeometry width="50" height="50" relative="1" as="geometry">
            <mxPoint x="705" y="450" as="sourcePoint" />
            <mxPoint x="755" y="400" as="targetPoint" />
          </mxGeometry>
        </mxCell>
        <mxCell id="APJNa1jF2CcIG3LwoiaT-49" value="" style="endArrow=none;html=1;rounded=0;entryX=0.5;entryY=1;entryDx=0;entryDy=0;exitX=0.5;exitY=0;exitDx=0;exitDy=0;" parent="1" source="APJNa1jF2CcIG3LwoiaT-42" target="APJNa1jF2CcIG3LwoiaT-15" edge="1">
          <mxGeometry width="50" height="50" relative="1" as="geometry">
            <mxPoint x="705" y="450" as="sourcePoint" />
            <mxPoint x="755" y="400" as="targetPoint" />
          </mxGeometry>
        </mxCell>
        <mxCell id="APJNa1jF2CcIG3LwoiaT-50" value="" style="endArrow=none;html=1;rounded=0;entryX=0.5;entryY=1;entryDx=0;entryDy=0;exitX=0.5;exitY=0;exitDx=0;exitDy=0;" parent="1" source="APJNa1jF2CcIG3LwoiaT-44" target="APJNa1jF2CcIG3LwoiaT-15" edge="1">
          <mxGeometry width="50" height="50" relative="1" as="geometry">
            <mxPoint x="705" y="450" as="sourcePoint" />
            <mxPoint x="755" y="400" as="targetPoint" />
          </mxGeometry>
        </mxCell>
        <mxCell id="APJNa1jF2CcIG3LwoiaT-51" value="" style="endArrow=none;html=1;rounded=0;entryX=0.5;entryY=1;entryDx=0;entryDy=0;exitX=0.5;exitY=0;exitDx=0;exitDy=0;" parent="1" source="APJNa1jF2CcIG3LwoiaT-11" target="APJNa1jF2CcIG3LwoiaT-4" edge="1">
          <mxGeometry width="50" height="50" relative="1" as="geometry">
            <mxPoint x="560" y="450" as="sourcePoint" />
            <mxPoint x="610" y="400" as="targetPoint" />
          </mxGeometry>
        </mxCell>
        <mxCell id="APJNa1jF2CcIG3LwoiaT-52" value="" style="endArrow=none;html=1;rounded=0;entryX=0.5;entryY=1;entryDx=0;entryDy=0;exitX=0.5;exitY=0;exitDx=0;exitDy=0;" parent="1" source="APJNa1jF2CcIG3LwoiaT-12" target="APJNa1jF2CcIG3LwoiaT-7" edge="1">
          <mxGeometry width="50" height="50" relative="1" as="geometry">
            <mxPoint x="560" y="450" as="sourcePoint" />
            <mxPoint x="610" y="400" as="targetPoint" />
          </mxGeometry>
        </mxCell>
        <mxCell id="APJNa1jF2CcIG3LwoiaT-53" value="" style="endArrow=none;html=1;rounded=0;entryX=0.5;entryY=1;entryDx=0;entryDy=0;exitX=0.5;exitY=0;exitDx=0;exitDy=0;" parent="1" source="APJNa1jF2CcIG3LwoiaT-13" target="APJNa1jF2CcIG3LwoiaT-7" edge="1">
          <mxGeometry width="50" height="50" relative="1" as="geometry">
            <mxPoint x="560" y="450" as="sourcePoint" />
            <mxPoint x="610" y="400" as="targetPoint" />
          </mxGeometry>
        </mxCell>
        <mxCell id="APJNa1jF2CcIG3LwoiaT-54" value="" style="endArrow=none;html=1;rounded=0;entryX=0.5;entryY=1;entryDx=0;entryDy=0;exitX=0.5;exitY=0;exitDx=0;exitDy=0;" parent="1" source="APJNa1jF2CcIG3LwoiaT-14" target="APJNa1jF2CcIG3LwoiaT-8" edge="1">
          <mxGeometry width="50" height="50" relative="1" as="geometry">
            <mxPoint x="885" y="450" as="sourcePoint" />
            <mxPoint x="935" y="400" as="targetPoint" />
          </mxGeometry>
        </mxCell>
        <mxCell id="APJNa1jF2CcIG3LwoiaT-55" value="" style="endArrow=none;html=1;rounded=0;entryX=0.5;entryY=1;entryDx=0;entryDy=0;exitX=0.5;exitY=0;exitDx=0;exitDy=0;" parent="1" source="APJNa1jF2CcIG3LwoiaT-15" target="APJNa1jF2CcIG3LwoiaT-8" edge="1">
          <mxGeometry width="50" height="50" relative="1" as="geometry">
            <mxPoint x="885" y="450" as="sourcePoint" />
            <mxPoint x="935" y="400" as="targetPoint" />
          </mxGeometry>
        </mxCell>
        <mxCell id="APJNa1jF2CcIG3LwoiaT-56" value="" style="endArrow=none;html=1;rounded=0;entryX=0.5;entryY=1;entryDx=0;entryDy=0;exitX=0.5;exitY=0;exitDx=0;exitDy=0;" parent="1" source="APJNa1jF2CcIG3LwoiaT-7" target="APJNa1jF2CcIG3LwoiaT-2" edge="1">
          <mxGeometry width="50" height="50" relative="1" as="geometry">
            <mxPoint x="560" y="450" as="sourcePoint" />
            <mxPoint x="610" y="400" as="targetPoint" />
          </mxGeometry>
        </mxCell>
        <mxCell id="APJNa1jF2CcIG3LwoiaT-57" value="" style="endArrow=none;html=1;rounded=0;entryX=0.5;entryY=1;entryDx=0;entryDy=0;exitX=0.5;exitY=0;exitDx=0;exitDy=0;" parent="1" source="APJNa1jF2CcIG3LwoiaT-4" target="APJNa1jF2CcIG3LwoiaT-2" edge="1">
          <mxGeometry width="50" height="50" relative="1" as="geometry">
            <mxPoint x="560" y="450" as="sourcePoint" />
            <mxPoint x="610" y="400" as="targetPoint" />
          </mxGeometry>
        </mxCell>
        <mxCell id="APJNa1jF2CcIG3LwoiaT-58" value="" style="endArrow=none;html=1;rounded=0;entryX=0.5;entryY=1;entryDx=0;entryDy=0;exitX=0.5;exitY=0;exitDx=0;exitDy=0;" parent="1" source="APJNa1jF2CcIG3LwoiaT-8" target="APJNa1jF2CcIG3LwoiaT-2" edge="1">
          <mxGeometry width="50" height="50" relative="1" as="geometry">
            <mxPoint x="560" y="450" as="sourcePoint" />
            <mxPoint x="610" y="400" as="targetPoint" />
          </mxGeometry>
        </mxCell>
        <mxCell id="Re4NljraGKIvZf6dhlCf-1" value="Usability" style="text;html=1;strokeColor=#d79b00;fillColor=#ffe6cc;align=center;verticalAlign=middle;whiteSpace=wrap;rounded=0;" vertex="1" parent="1">
          <mxGeometry x="830" y="300" width="130" height="30" as="geometry" />
        </mxCell>
        <mxCell id="Re4NljraGKIvZf6dhlCf-2" value="User Experience" style="text;html=1;strokeColor=#d79b00;fillColor=#ffe6cc;align=center;verticalAlign=middle;whiteSpace=wrap;rounded=0;" vertex="1" parent="1">
          <mxGeometry x="830" y="380" width="130" height="30" as="geometry" />
        </mxCell>
        <mxCell id="Re4NljraGKIvZf6dhlCf-3" value="A user must be notified for successful and non-successful requests (H)" style="text;html=1;strokeColor=#d79b00;fillColor=#ffe6cc;align=center;verticalAlign=middle;whiteSpace=wrap;rounded=0;" vertex="1" parent="1">
          <mxGeometry x="855" y="448.75" width="80" height="98.75" as="geometry" />
        </mxCell>
        <mxCell id="Re4NljraGKIvZf6dhlCf-4" value="" style="endArrow=none;html=1;rounded=0;entryX=0.5;entryY=1;entryDx=0;entryDy=0;exitX=0.5;exitY=0;exitDx=0;exitDy=0;" edge="1" parent="1" source="Re4NljraGKIvZf6dhlCf-2" target="Re4NljraGKIvZf6dhlCf-1">
          <mxGeometry width="50" height="50" relative="1" as="geometry">
            <mxPoint x="930" y="560" as="sourcePoint" />
            <mxPoint x="980" y="510" as="targetPoint" />
          </mxGeometry>
        </mxCell>
        <mxCell id="Re4NljraGKIvZf6dhlCf-5" value="" style="endArrow=none;html=1;rounded=0;entryX=0.5;entryY=1;entryDx=0;entryDy=0;exitX=0.5;exitY=0;exitDx=0;exitDy=0;" edge="1" parent="1" source="Re4NljraGKIvZf6dhlCf-3" target="Re4NljraGKIvZf6dhlCf-2">
          <mxGeometry width="50" height="50" relative="1" as="geometry">
            <mxPoint x="930" y="560" as="sourcePoint" />
            <mxPoint x="980" y="510" as="targetPoint" />
          </mxGeometry>
        </mxCell>
        <mxCell id="Re4NljraGKIvZf6dhlCf-6" value="" style="endArrow=none;html=1;rounded=0;exitX=0.5;exitY=0;exitDx=0;exitDy=0;entryX=0.5;entryY=1;entryDx=0;entryDy=0;" edge="1" parent="1" source="Re4NljraGKIvZf6dhlCf-1" target="APJNa1jF2CcIG3LwoiaT-2">
          <mxGeometry width="50" height="50" relative="1" as="geometry">
            <mxPoint x="930" y="560" as="sourcePoint" />
            <mxPoint x="720" y="290" as="targetPoint" />
          </mxGeometry>
        </mxCell>
        <mxCell id="Re4NljraGKIvZf6dhlCf-7" value="Consistency" style="text;html=1;strokeColor=#d79b00;fillColor=#ffe6cc;align=center;verticalAlign=middle;whiteSpace=wrap;rounded=0;" vertex="1" parent="1">
          <mxGeometry x="1290" y="380" width="90" height="30" as="geometry" />
        </mxCell>
        <mxCell id="Re4NljraGKIvZf6dhlCf-8" value="Application must first check if there are data to be synced before the user can push changes (H)" style="text;html=1;strokeColor=#d79b00;fillColor=#ffe6cc;align=center;verticalAlign=middle;whiteSpace=wrap;rounded=0;" vertex="1" parent="1">
          <mxGeometry x="1290" y="460" width="90" height="110" as="geometry" />
        </mxCell>
        <mxCell id="Re4NljraGKIvZf6dhlCf-9" value="" style="endArrow=none;html=1;rounded=0;entryX=0.5;entryY=1;entryDx=0;entryDy=0;exitX=0.5;exitY=0;exitDx=0;exitDy=0;" edge="1" parent="1" source="Re4NljraGKIvZf6dhlCf-8" target="Re4NljraGKIvZf6dhlCf-7">
          <mxGeometry width="50" height="50" relative="1" as="geometry">
            <mxPoint x="930" y="560" as="sourcePoint" />
            <mxPoint x="980" y="510" as="targetPoint" />
          </mxGeometry>
        </mxCell>
        <mxCell id="Re4NljraGKIvZf6dhlCf-10" value="" style="endArrow=none;html=1;rounded=0;exitX=0.5;exitY=0;exitDx=0;exitDy=0;entryX=0.5;entryY=1;entryDx=0;entryDy=0;" edge="1" parent="1" source="Re4NljraGKIvZf6dhlCf-7" target="APJNa1jF2CcIG3LwoiaT-8">
          <mxGeometry width="50" height="50" relative="1" as="geometry">
            <mxPoint x="930" y="560" as="sourcePoint" />
            <mxPoint x="1210" y="360" as="targetPoint" />
          </mxGeometry>
        </mxCell>
      </root>
    </mxGraphModel>
  </diagram>
</mxfile>
